# AST/ASF file generated using VICON BodyLanguage
# -----------------------------------------------
:version 1.10
:name VICON
:units
  mass 1.0
  length 0.45
  angle deg
:documentation
   .ast/.asf automatically generated from VICON data using
   VICON BodyBuilder and BodyLanguage model FoxedUp or BRILLIANT.MOD
:root
   order TX TY TZ RX RY RZ
   axis XYZ
   position 0 0 0  
   orientation 0 0 0 
:bonedata
  begin
     id 1 
     name lhipjoint
     direction 0.578396 -0.714046 0.394458 
     length 2.21935 
     axis 0 0 0  XYZ
  end
  begin
     id 2 
     name lfemur
     direction 0.34202 -0.939693 0  
     length 6.39105  
     axis 0 0 20  XYZ
    dof rx ry rz
    limits (-160.0 20.0)
           (-70.0 70.0)
           (-60.0 70.0)
  end
  begin
     id 3 
     name ltibia
     direction 0.34202 -0.939693 0   
     length 6.99037   
     axis 0 0 20   XYZ
    dof rx
    limits (-10.0 170.0)
  end
  begin
     id 4 
     name lfoot
     direction 0.0582372 -0.160005 0.985397   
     length 2.06111   
     axis -90 7.62852e-016 20   XYZ
    dof rx rz
    limits (-45.0 90.0)
           (-70.0 20.0)
  end
  begin
     id 5 
     name ltoes
     direction 1.53556e-011 -4.21875e-011 1   
     length 1.04074   
     axis -90 7.62852e-016 20   XYZ
    dof rx
    limits (-90.0 20.0)
  end
  begin
     id 6 
     name rhipjoint
     direction -0.558179 -0.726269 0.40121   
     length 2.182  
     axis 0 0 0  XYZ 
  end
  begin
     id 7 
     name rfemur
     direction -0.34202 -0.939693 0   
     length 6.51172   
     axis 0 0 -20   XYZ
    dof rx ry rz
    limits (-160.0 20.0)
           (-70.0 70.0)
           (-70.0 60.0)
  end
  begin
     id 8 
     name rtibia
     direction -0.34202 -0.939693 0   
     length 7.02607   
     axis 0 0 -20   XYZ
    dof rx
    limits (-10.0 170.0)
 end
 begin
     id 9 
     name rfoot
     direction -0.0788856 -0.216737 0.973038   
     length 1.96734  
     axis -90 -7.62852e-016 -20   XYZ
    dof rx rz
    limits (-45.0 90.0)
           (-20.0 70.0)
  end
  begin
     id 10 
     name rtoes
     direction -1.53567e-011 -4.21783e-011 1   
     length 0.990825   
     axis -90 -7.62852e-016 -20   XYZ
    dof rx
    limits (-90.0 20.0)
  end
  begin
     id 11 
     name lowerback
     direction 0.00668177 0.999323 -0.0361741   
     length 1.7655   
     axis 0 0 0   XYZ
    dof rx ry rz
    limits (-20.0 45.0)
           (-30.0 30.0)
           (-30.0 30.0)
  end
  begin
     id 12 
     name upperback
     direction -0.00222086 0.99851 0.0545167   
     length 1.74912   
     axis 0 0 0   XYZ
    dof rx ry rz
    limits (-20.0 45.0)
           (-30.0 30.0)
           (-30.0 30.0)
  end
  begin
     id 13 
     name thorax
     direction -0.00733971 0.997496 0.0703443   
     length 1.75715   
     axis 0 0 0   XYZ
    dof rx ry rz
    limits (-20.0 45.0)
           (-30.0 30.0)
           (-30.0 30.0)
  end
  begin
     id 14 
     name lowerneck
     direction 0.0279797 0.994795 0.0979765   
     length 1.46939   
     axis 0 0 0   XYZ
    dof rx ry rz
    limits (-20.0 45.0)
           (-30.0 30.0)
           (-30.0 30.0)
  end
  begin
     id 15 
     name upperneck
     direction 0.00339187 0.976776 -0.214238   
     length 1.48018   
     axis 0 0 0   XYZ
    dof rx ry rz
    limits (-20.0 45.0)
           (-30.0 30.0)
           (-30.0 30.0)
  end
  begin
     id 16
     name head
     direction -0.00263506 0.996603 -0.0823096  
     length 1.4976  
     axis 0 0 0   XYZ
    dof rx ry rz
    limits (-20.0 45.0)
           (-30.0 30.0)
           (-30.0 30.0)
  end
  begin
     id 17 
     name lclavicle
     direction 0.894044 0.44508 -0.0508781  
     length 3.03024  
     axis 0 0 0   XYZ
    dof ry rz
    limits (-20.0 10.0)
           (0.0 20.0)
  end
  begin
     id 18 
     name lhumerus
     direction 1 -4.48961e-011 -2.39475e-018   
     length 4.4661   
     axis 180 -30 -90   XYZ
    dof rx ry rz
    limits (-60.0 90.0)
           (-90.0 90.0)
           (-90.0 90.0)
  end
  begin
     id 19
     name lradius
     direction 1 -4.48961e-011 9.29328e-028   
     length 3.41414   
     axis 180 -30 -90   XYZ
    dof rx
    limits (-10.0 170.0)
  end
  begin
     id 20
     name lwrist
     direction 1 -4.48985e-011 1.53461e-026   
     length 1.70707   
     axis -1.09697e-014 90 90   XYZ
    dof ry
    limits (-180.0 0.0)
 end
  begin
     id 21 
     name lhand
     direction 1 -4.48966e-011 3.06923e-026   
     length 0.328298   
     axis -1.95843e-014 90 90   XYZ
    dof rx rz
    limits (-90.0 90.0)
           (-45.0 45.0)
  end
  begin
     id 22 
     name lfingers
     direction 1 -4.48893e-011 6.13845e-026   
     length 0.264682   
     axis -3.91686e-014 90 90   XYZ
    dof rx
    limits (0.0 90.0)
  end
  begin
     id 23
     name lthumb
     direction 0.707107 -6.34876e-011 0.707107   
     length 0.380032   
     axis -90 45 2.85299e-015   XYZ
    dof rx rz
    limits (-45.0 45.0)
           (-45.0 45.0)
  end
  begin
     id 24 
     name rclavicle
     direction -0.936955 0.347862 -0.0332887   
     length 3.26927  
     axis 0 0 0   XYZ 
    dof ry rz
    limits (-10.0 20.0)
           (-20.0 0.0)
  end
  begin
     id 25 
     name rhumerus
     direction -1 -4.4896e-011 1.78637e-018  
     length 4.40431   
     axis 180 30 90   XYZ
    dof rx ry rz
    limits (-90.0 60.0)
           (-90.0 90.0)
           (-90.0 90.0)
  end
  begin
     id 26 
     name rradius
     direction -1 -4.48955e-011 9.34036e-027   
     length 3.04688   
     axis 180 30 90   XYZ
    dof rx
    limits (-10.0 170.0)
  end
  begin
     id 27 
     name rwrist
     direction -1 -4.49011e-011 1.53461e-026   
     length 1.52344   
     axis -1.09697e-014 -90 -90   XYZ
    dof ry
    limits (-180.0 0.0)
  end
  begin
     id 28
     name rhand
     direction -1 -4.48834e-011 3.06923e-026   
     length 0.500489   
     axis -1.95843e-014 -90 -90   XYZ
    dof rx rz
    limits (-90.0 90.0)
           (-45.0 45.0)
  end
  begin
     id 29
     name rfingers
     direction -1 -4.48967e-011 6.13845e-026   
     length 0.403507   
     axis -3.91686e-014 -90 -90   XYZ
    dof rx
    limits (0.0 90.0)
  end
  begin
     id 30
     name rthumb
     direction -0.707107 -6.34826e-011 0.707107   
     length 0.579358   
     axis -90 -45 -2.85299e-015   XYZ
    dof rx rz
    limits (-45.0 45.0)
           (-45.0 45.0)
  end
:hierarchy
  begin
    root lhipjoint rhipjoint lowerback
    lhipjoint lfemur
    lfemur ltibia
    ltibia lfoot
    lfoot ltoes
    rhipjoint rfemur
    rfemur rtibia
    rtibia rfoot
    rfoot rtoes
    lowerback upperback
    upperback thorax
    thorax lowerneck lclavicle rclavicle
    lowerneck upperneck
    upperneck head
    lclavicle lhumerus
    lhumerus lradius
    lradius lwrist
    lwrist lhand lthumb
    lhand lfingers
    rclavicle rhumerus
    rhumerus rradius
    rradius rwrist
    rwrist rhand rthumb
    rhand rfingers
  end

#!OML:ASF H:\IndianDance\Patient Classification 1\Patient 1\Session 1\dancer.ASF
:FULLY-SPECIFIED
:DEGREES
1060
root 3.29296 14.0145 -0.933609 48.9288 -76.6702 -37.0966
lowerback 20.8023 1.38775 -5.30393
upperback -1.21293 -1.37326 -10.4881
thorax -13.4234 -0.975422 -8.57594
lowerneck -17.1604 13.335 10.2195
upperneck 15.2858 16.7626 -6.04081
head 8.9493 7.89189 -1.34377
rclavicle -1.59028e-015 -1.43125e-013
rhumerus -34.1326 50.2377 -56.6
rradius 119.21
rwrist 7.90317
rhand -41.6095 31.0157
rfingers 7.12502
rthumb -14.519 1.54374
lclavicle -1.59028e-015 -1.43125e-013
lhumerus 4.16774 25.76 46.2016
lradius 49.6949
lwrist 62.5297
lhand -5.66883 31.285
lfingers 7.12502
lthumb 20.1507 -659.74
rfemur -47.4627 -28.0973 41.23
rtibia 66.3026
rfoot -28.7428 -18.7074
rtoes 4.75519
lfemur -55.7532 34.3204 -7.32634
ltibia 38.8157
lfoot -22.9166 20.3388
ltoes -2.28414
1061
root 3.28877 14.0204 -0.906934 49.9846 -76.652 -37.8441
lowerback 20.8862 1.37179 -5.05057
upperback -1.21733 -1.37101 -10.6338
thorax -13.4894 -1.00737 -8.90936
lowerneck -17.0838 13.4851 10.2429
upperneck 15.1384 16.9999 -6.23291
head 8.92527 7.98885 -1.37797
rclavicle -4.13472e-014 4.77083e-014
rhumerus -32.9503 50.9745 -55.3739
rradius 119.248
rwrist 8.98293
rhand -42.0849 32.9105
rfingers 7.12502
rthumb -14.9769 3.47207
lclavicle -4.13472e-014 4.77083e-014
lhumerus 5.25632 27.3132 47.0171
lradius 48.0881
lwrist 62.833
lhand -4.14579 31.9046
lfingers 7.12502
lthumb 21.614 -659.282
rfemur -47.942 -28.2562 41.4271
rtibia 66.5606
rfoot -28.372 -18.1444
rtoes 3.50542
lfemur -54.8305 33.4969 -6.8697
ltibia 37.094
lfoot -23.375 21.2541
ltoes -1.09093
1062
root 3.28727 14.0276 -0.87922 51.0085 -76.6567 -38.5982
lowerback 21.0252 1.35619 -4.80571
upperback -1.22886 -1.37367 -10.7578
thorax -13.5955 -1.04074 -9.21574
lowerneck -17.0264 13.6233 10.2534
upperneck 15.0408 17.2245 -6.42283
head 8.9199 8.07789 -1.40908
rclavicle -3.18055e-015 6.36111e-015
rhumerus -31.6791 51.64 -54.0398
rradius 119.276
rwrist 9.91489
rhand -42.5206 34.925
rfingers 7.12502
rthumb -15.3967 5.51838
lclavicle -3.18055e-015 6.36111e-015
lhumerus 6.32184 28.8974 47.8482
lradius 46.5137
lwrist 62.784
lhand -2.75766 32.5019
lfingers 7.12502
lthumb 22.9465 -658.844
rfemur -48.4101 -28.3706 41.544
rtibia 66.9073
rfoot -27.9091 -17.4967
rtoes 2.08282
lfemur -53.9559 32.6759 -6.33186
ltibia 35.6789
lfoot -23.7398 22.0287
ltoes 0.200699
1063
root 3.28897 14.0356 -0.852234 51.9572 -76.6884 -39.3041
lowerback 21.2171 1.34573 -4.59744
upperback -1.24956 -1.3824 -10.8621
thorax -13.743 -1.07439 -9.48015
lowerneck -16.9816 13.7412 10.248
upperneck 14.9849 17.4249 -6.60535
head 8.92739 8.15431 -1.43761
rclavicle 1.59028e-014 -1.11319e-013
rhumerus -30.3433 52.2418 -52.6194
rradius 119.292
rwrist 10.7415
rhand -42.9567 37.0023
rfingers 7.12502
rthumb -15.8167 7.62837
lclavicle 1.59028e-014 -1.11319e-013
lhumerus 7.37491 30.4877 48.6892
lradius 44.9735
lwrist 62.4541
lhand -1.41471 33.081
lfingers 7.12502
lthumb 24.2347 -658.431
rfemur -48.8958 -28.4162 41.5731
rtibia 67.3645
rfoot -27.3389 -16.7859
rtoes 0.476982
lfemur -53.224 31.9321 -5.79388
ltibia 34.5838
lfoot -24.0349 22.598
ltoes 1.46308
1064
root 3.29325 14.0435 -0.827387 52.8043 -76.7664 -39.9305
lowerback 21.4534 1.34884 -4.46277
upperback -1.2803 -1.39673 -10.954
thorax -13.9277 -1.10605 -9.68906
lowerneck -16.9525 13.838 10.2177
upperneck 14.9683 17.5973 -6.75891
head 8.94391 8.21792 -1.45605
rclavicle 5.40694e-014 -2.54444e-014
rhumerus -28.9521 52.7808 -51.1373
rradius 119.298
rwrist 11.4739
rhand -43.3824 39.1575
rfingers 7.12502
rthumb -16.2266 9.81654
lclavicle 5.40694e-014 -2.54444e-014
lhumerus 8.42109 32.0624 49.5246
lradius 43.4791
lwrist 61.952
lhand -0.151708 33.676
lfingers 7.12502
lthumb 25.4451 -658.002
rfemur -49.4177 -28.3731 41.4982
rtibia 67.9491
rfoot -26.661 -16.0329
rtoes -1.24
lfemur -52.6905 31.3534 -5.34438
ltibia 33.7969
lfoot -24.2536 22.9308
ltoes 2.64028
